<svg id="SvgjsSvg1001" width="288" height="288" xmlns="http://www.w3.org/2000/svg" version="1.1" xmlns:xlink="http://www.w3.org/1999/xlink" xmlns:svgjs="http://svgjs.com/svgjs"><defs id="SvgjsDefs1002"></defs><g id="SvgjsG1008"><svg xmlns="http://www.w3.org/2000/svg" xmlns:xlink="http://www.w3.org/1999/xlink" data-name="Layer 1" viewBox="0 0 24 24" width="288" height="288"><defs><linearGradient id="a" x1="7.388" x2="24.835" y1="5.933" y2="6.188" gradientUnits="userSpaceOnUse"><stop offset="0" stop-color="#f39dfd" class="stopColor96369f svgShape"></stop><stop offset="1" stop-color="#00c4ff" class="stopColor01b3ed svgShape"></stop></linearGradient><linearGradient id="b" x1="7.212" x2="24.659" y1="17.93" y2="18.185" xlink:href="#a"></linearGradient></defs><path fill="url(#a)" d="M18,6a6,6,0,1,0-6,6A6.006,6.006,0,0,0,18,6Zm-6,4a4,4,0,1,1,4-4A4,4,0,0,1,12,10Z"></path><path fill="url(#b)" d="M3.051,18.446a9.944,9.944,0,0,0,17.845,0,1.006,1.006,0,0,0,0-.892,9.944,9.944,0,0,0-17.845,0A1,1,0,0,0,3.051,18.446ZM12,14a7.9,7.9,0,0,1,6.866,4A7.938,7.938,0,0,1,5.081,18,7.948,7.948,0,0,1,12,14Z"></path></svg></g></svg>